<svg width="247" height="324" viewBox="0 0 247 324" fill="none" xmlns="http://www.w3.org/2000/svg">
<path fill-rule="evenodd" clip-rule="evenodd" d="M241.496 179.325C238.479 179.621 235.463 179.917 232.446 180.213C217.998 181.317 203.555 183.624 189.218 185.008C188.861 184.427 188.162 184.522 187.738 184.926C186.307 184.801 184.704 183.707 183.408 184.845C183.366 184.839 183.323 184.832 183.281 184.828C180.973 180.397 179.378 175.672 177.83 170.94C176.842 168.031 175.513 165.214 173.056 163.261C168.864 160.35 159.258 154.446 154.335 154.694C154.254 153.813 153.843 152.904 153.168 152.317C154.655 149.781 148.71 148.126 148.29 148.42C148.559 139.947 144.575 132.589 135.791 130.902C127.921 129.262 116.727 128.986 112.495 137.214C112.03 137.161 107.274 137.137 106.814 137.188C106.098 136.282 98.2412 144.871 101.461 147.862C72.6714 160.602 56.3014 159.082 48.3328 194.899C47.2555 198.264 47.1771 201.946 46.0395 205.236C41.9924 214.69 38.7098 224.756 37.8928 235.043C35.9197 235.549 35.6928 239.029 37.9783 239.533C38.8513 239.725 39.5813 239.988 40.2179 240.487C39.7202 248.917 41.7583 268.174 43.0424 268.114C45.6607 276.451 57.34 278.803 65.6084 275.874C64.1831 278.557 65.6084 280.243 65.6084 281.677C95.3606 282.803 127.892 282.154 157.635 283.698C161.44 283.644 165.442 284.633 169.195 284.064C171.483 283.515 171.487 279.915 169.166 279.47L179.309 277.266C179.083 277.181 183.491 274.248 186.822 268.767C189.923 262.635 187.813 255.234 189.218 248.565C200.192 247.667 211.347 247.283 222.201 245.424C223.681 249.854 230.088 244.556 232.124 242.425C232.122 242.422 232.119 242.418 232.117 242.415C233.102 242.145 233.892 241.221 233.919 240.127C234.61 239.14 234.755 237.747 234.092 236.792C237.13 219.257 241.761 201.353 243.435 183.653C244.027 183.522 244.584 183.263 245.056 182.863L245.018 182.824C245.818 181.932 245.974 180.391 244.64 179.632C243.563 179.02 242.664 179.21 241.496 179.325Z" fill="#FFDBB4"/>
<path fill-rule="evenodd" clip-rule="evenodd" d="M126.761 244.955L129.084 246.434L148.099 252.564L159.718 254.043L169.225 252.564V268.838L171.127 284.055C170.282 285.605 162.254 285.605 147.042 284.055C137.345 283.067 101.906 282.587 93.8375 282.376L93.3803 282.364C83.8987 282.09 74.5325 282.09 65.2817 282.364V276.657L91.6901 263.554L115.352 250.239L126.761 244.955ZM113.288 135.884L115.034 137.188L111.221 143.455L129.795 158.484V170.489L135.675 176.052L139.036 170.489L143.772 164.188L147.137 153.975L145.991 147.246L148.296 147.029C148.307 147.489 148.305 147.953 148.29 148.42C148.71 148.126 154.655 149.781 153.168 152.317C153.843 152.904 154.254 153.813 154.335 154.694C159.258 154.446 168.864 160.35 173.056 163.261C175.513 165.215 176.842 168.031 177.83 170.94L178.063 171.65L178.303 172.378L178.545 173.106C179.882 177.108 181.326 181.074 183.281 184.828C183.323 184.832 183.366 184.839 183.408 184.845C184.704 183.707 186.307 184.801 187.738 184.926C188.152 184.532 188.828 184.431 189.192 184.969L189.218 185.008L171.393 188.521L159.633 229.786L149.393 221.47L143.896 222.288L129.38 227.525L112.497 231.912L73.9554 242.542H69.0472L40.4871 235.643L37.9132 234.793C38.7632 224.593 42.0253 214.613 46.0395 205.236C47.1771 201.946 47.2555 198.264 48.3328 194.9C56.3014 159.082 72.6714 160.603 101.461 147.862C98.2412 144.871 106.098 136.282 106.814 137.188L106.859 137.184L106.956 137.179L107.082 137.175C108.205 137.142 112.077 137.167 112.495 137.214C112.737 136.743 113.002 136.3 113.288 135.884Z" fill="#BA98DE"/>
<path fill-rule="evenodd" clip-rule="evenodd" d="M244.345 180.578L243.814 183.538C243.688 183.579 243.56 183.614 243.43 183.643C243.263 185.407 243.067 187.174 242.845 188.942L239.554 207.295C238.986 210.542 238.447 213.796 237.912 217.051L237.203 220.548L236.764 222.721C235.816 227.427 234.895 232.117 234.087 236.782C234.209 236.958 234.304 237.148 234.372 237.348L234.31 237.611L234.267 237.787L234.223 237.96C233.585 240.411 232.476 242.789 229.862 243.511C227.89 244.055 225.726 244.104 223.689 244.319L223.464 244.343L187.832 248.352C183.526 248.836 179.223 249.335 174.92 249.839L171.189 250.277C165.99 250.879 160.761 251.353 155.638 252.443C155.45 252.483 155.294 252.559 155.167 252.658C156.198 248.751 157.186 244.85 158.081 240.904C159.088 236.463 160.044 232.013 161.121 227.588C163.292 218.673 165.725 209.817 168.389 201.037C168.948 199.194 169.52 197.355 170.104 195.52L170.514 194.238L170.83 193.216C171.318 191.657 171.923 190.055 173.355 189.196C175.031 188.19 177.317 188.023 179.218 187.675L180.505 187.433C182.431 187.074 184.359 186.728 186.29 186.396C195.534 184.805 204.831 183.529 214.162 182.571C223.871 181.573 233.615 180.925 243.37 180.608L244.345 180.578ZM155.905 241.773L155.996 241.78L154.665 252.424C154.452 252.275 154.182 252.184 153.852 252.185C149.486 252.197 145.301 250.802 141.253 249.267L140.637 249.032L138.918 248.371C137.171 247.702 135.415 247.047 133.626 246.504L132.903 246.285L132.535 246.177C131.181 245.781 129.756 245.422 128.347 245.332L128.155 245.322L128.565 245.106C128.625 245.075 128.678 245.039 128.725 245.001C129.5 245.059 130.277 245.043 131.095 244.896C132.634 244.619 134.13 244.083 135.503 243.338L136.117 243.005L136.368 242.872L136.534 242.786L136.699 242.702C137.879 242.114 139.007 241.746 140.496 242.059C142.187 242.415 143.669 243.327 145.194 244.097L145.464 244.232L145.646 244.32L145.832 244.407L146.019 244.493C148.081 245.421 151.361 246.422 152.152 243.619C152.469 242.492 152.22 241.437 151.669 240.512C152.696 240.423 154.531 241.634 155.905 241.773Z" fill="white"/>
<path fill-rule="evenodd" clip-rule="evenodd" d="M113.043 135.303C113.94 133.049 116.97 133.925 116.632 136.293C116.43 137.711 115.654 139.209 114.956 140.452C114.388 141.463 113.741 142.451 112.862 143.209C114.426 144.668 116.048 146.074 117.712 147.409C119.528 148.866 121.437 150.208 123.411 151.442C125.141 152.524 126.95 153.483 128.581 154.717C130.098 155.865 131.479 157.246 132.182 159.048C132.931 160.967 132.606 162.949 132.054 164.867L131.991 165.084C131.428 166.984 130.452 169.274 131.805 171.064C132.493 171.976 133.494 172.621 134.359 173.35C135.127 173.997 135.848 174.702 136.509 175.458C137.951 177.107 139.124 178.962 139.864 181.03L139.93 181.218C140.564 183.048 141.028 185.29 140.171 187.087C139.925 187.602 139.132 187.434 138.994 186.933C138.683 185.797 138.699 184.607 138.438 183.454C138.166 182.256 137.714 181.119 137.123 180.042C135.981 177.96 134.434 176.182 132.606 174.678L132.058 174.233C130.632 173.062 129.322 171.82 129.032 169.883C128.723 167.81 129.553 165.835 130.087 163.873C130.459 162.505 130.58 161.194 130.178 159.959C129.687 160.761 129.017 161.522 128.487 162.201C127.431 163.554 126.366 164.898 125.303 166.246C124.213 167.627 123.15 169.03 122.138 170.47C121.685 171.114 121.237 171.761 120.791 172.41C120.455 172.897 119.987 173.384 119.621 173.881C119.71 174.147 119.703 174.454 119.542 174.671C117.602 177.294 114.841 171.821 114.121 170.439C112.655 167.623 111.564 164.632 110.093 161.816C108.568 158.898 106.832 156.057 104.898 153.393C103.728 151.782 102.416 150.268 101.346 148.605C98.8238 150.893 95.5052 152.426 92.457 153.817C89.1079 155.345 85.6285 156.593 82.1947 157.918L81.1804 158.312C75.2639 160.622 69.2028 163.16 64.2851 167.263C58.5063 172.085 55.0876 178.805 52.5424 185.764C49.6126 193.775 47.1887 202.002 44.9292 210.224C43.7729 214.431 42.6758 218.657 41.6444 222.897C40.7355 226.632 39.9821 230.404 38.93 234.1C41.0638 234.025 43.4974 234.851 45.3192 235.09C53.6218 236.177 61.8126 237.91 69.6513 240.911C70.6195 241.281 70.8997 242.249 70.6888 243.033C71.2472 242.875 71.8052 242.716 72.3635 242.559C71.7518 241.621 72.0438 239.944 72.0919 238.905L72.0948 238.834C72.1442 237.449 72.2945 236.062 72.3919 234.68C72.5773 232.044 72.8188 229.428 73.1398 226.808L73.2217 226.153C73.5855 223.302 73.8545 220.435 74.2514 217.589L74.2983 217.263C74.108 216.535 73.8864 215.816 73.6538 215.1C73.0339 213.193 72.159 211.397 71.3923 209.55C71.3019 209.332 71.6116 209.207 71.7564 209.338C73.0548 210.506 74.0862 211.989 74.9148 213.539C74.9292 213.466 74.9419 213.393 74.9569 213.32L75.0514 212.854C75.2846 211.719 75.5682 210.524 76.2644 209.603C76.3385 209.505 76.4852 209.485 76.5553 209.603C77.2216 210.731 77.2962 212.16 77.3987 213.443C77.5147 214.895 77.5292 216.366 77.5088 217.822C77.4688 220.667 77.2683 223.52 77.1086 226.361C76.9519 229.153 76.6442 231.909 76.2477 234.673L76.1723 235.191C75.9784 236.507 75.8197 237.839 75.564 239.146L75.4918 239.502C75.3551 240.15 75.271 241.063 74.9989 241.822C81.9999 239.869 89.0116 237.96 96.0367 236.084C101.114 234.729 106.197 233.393 111.277 232.05C111.545 231.566 111.879 231.115 112.296 230.711C113.668 229.382 115.487 228.788 117.156 229.812C117.292 229.895 117.303 230.108 117.156 230.189C116.836 230.363 116.516 230.543 116.201 230.729L119.252 229.903C121.532 229.285 123.84 228.512 126.174 228.081C130.472 225.959 135.096 224.423 139.624 222.905L140.158 222.724C142.476 221.933 144.874 221.048 147.27 220.61C149.024 220.289 151.082 220.676 151.787 222.473C152.68 223.062 153.52 223.754 154.331 224.434C154.917 224.926 155.479 225.448 156.05 225.957L156.155 226.05C156.622 226.455 156.992 226.727 157.107 227.372C157.166 227.705 156.954 228.156 156.544 228.112C155.286 227.977 154.264 226.519 153.411 225.649C152.753 224.976 152.089 224.28 151.487 223.54C151.137 223.731 150.656 223.697 150.433 223.274C149.276 221.083 146.107 222.601 144.354 223.121L141.842 223.865C140.586 224.237 139.33 224.611 138.077 224.992C134.633 226.039 131.205 227.21 127.729 228.171C128.04 228.513 127.997 229.121 127.407 229.352C124.686 230.42 121.701 230.973 118.875 231.705C117.09 232.168 115.306 232.634 113.524 233.103C113.218 233.598 112.998 234.159 112.905 234.811C112.565 237.21 113.221 239.978 113.861 242.298L113.957 242.644C114.482 244.51 115.255 246.797 116.864 247.975C117.257 248.262 117.757 248.462 118.261 248.507C121.41 246.885 124.56 245.264 127.711 243.645C128.294 243.345 128.834 243.751 128.965 244.234C130.076 244.052 131.184 243.764 132.194 243.421C133.89 242.845 135.215 241.746 136.805 240.986C139.883 239.515 143.025 241.321 145.781 242.695L146.416 243.007C147.651 243.607 150.222 244.759 150.815 243.119C151.388 241.532 149.575 239.836 148.404 239.122C147.009 238.27 145.384 237.815 143.806 237.435C142.906 237.218 141.994 237.041 141.077 236.912C140.037 236.766 138.962 236.788 137.96 236.45C137.463 236.283 137.386 235.492 137.96 235.361C139.502 235.01 141.343 235.393 142.952 235.784L143.792 235.992C145.414 236.39 147.05 236.889 148.527 237.683C149.6 238.26 150.734 239.137 151.474 240.211C152.117 239.614 152.917 239.634 153.75 239.855L154.203 239.981C154.95 240.188 155.555 240.331 156.282 240.187C156.379 239.658 156.478 239.129 156.583 238.6C157.619 233.398 158.755 228.215 160.009 223.061C162.171 214.17 164.672 205.376 167.493 196.673L167.776 195.803C168.427 193.812 168.95 191.643 169.999 189.815C170.991 188.085 172.58 187.089 174.468 186.562C176.611 185.963 178.862 185.65 181.048 185.246C181.535 185.156 182.024 185.07 182.512 184.981C182.1 184.236 181.792 183.391 181.515 182.742L181.466 182.629C180.87 181.271 180.335 179.888 179.819 178.497L179.432 177.452C178.499 174.934 177.536 172.458 176.224 170.104C174.843 167.626 173.011 165.6 170.728 163.923C166.072 160.505 160.46 158.761 155.944 155.107C155.759 154.958 155.996 154.702 156.184 154.796C159.233 156.329 162.525 157.371 165.696 158.619L166.322 158.866C168.829 159.86 171.375 160.942 173.544 162.552C175.963 164.347 177.869 166.576 179.301 169.226C180.712 171.839 181.615 174.763 182.61 177.554L182.877 178.297C183.278 179.412 183.693 180.524 184.168 181.609C184.546 182.471 185.25 183.454 185.57 184.438C186.446 184.286 187.321 184.134 188.198 183.987C207.184 180.816 226.382 178.953 245.623 178.408C246.375 178.387 246.765 179.105 246.654 179.762C244.807 190.685 243.166 201.645 241.366 212.576C240.58 217.347 239.779 222.114 238.958 226.879C238.543 229.293 238.062 231.698 237.669 234.115C237.351 236.068 237.12 238.036 236.575 239.943C236.085 241.653 235.335 243.302 234.101 244.606C232.772 246.013 230.917 246.694 229.049 247.015C224.308 247.831 219.445 248.165 214.666 248.709L189.219 251.605C189.591 254.986 189.619 258.315 189.448 261.735L189.351 263.603C189.271 265.105 189.176 266.609 188.961 268.096C188.69 269.96 187.838 271.539 186.582 272.932C185.428 274.211 184.027 275.303 182.664 276.348C181.25 277.434 179.788 278.482 178.125 279.154L177.909 279.239C176.449 279.809 173.712 280.692 171.718 280.369C171.978 281.676 172.483 283.081 172.036 284.374C171.828 284.975 171.043 285.274 170.562 284.763C169.61 283.751 169.535 282.413 169.31 281.093C169.075 279.718 168.873 278.338 168.693 276.956C168.345 274.282 168.075 271.583 167.992 268.887C167.907 266.118 167.94 263.345 168.089 260.579C168.166 259.158 168.261 257.739 168.441 256.327C168.518 255.725 168.596 255.123 168.686 254.523C168.719 254.304 168.755 254.086 168.794 253.868L166.51 254.126C163.008 254.517 159.504 254.87 155.978 254.925C155.56 254.932 155.239 254.741 155.029 254.464C154.805 254.829 154.415 255.09 153.857 255.088C148.932 255.069 144.345 253.458 139.866 251.559C137.608 250.602 135.385 249.565 133.123 248.616C131.012 247.73 128.756 247.098 126.696 246.1L121.283 248.94C121.244 249.08 121.193 249.212 121.139 249.323C120.786 250.042 120.091 250.433 119.382 250.727C118.701 251.009 117.995 251.097 117.308 251.026C113.203 253.178 109.097 255.328 104.988 257.473L100.879 259.616C92.6909 263.881 84.5353 268.215 76.2959 272.38L75.6893 272.685C72.8433 274.113 69.7874 275.56 66.6291 276.64C66.5729 277.44 66.6084 278.217 66.6754 279.064L66.6915 279.248C66.7857 280.249 66.9876 281.502 66.1854 282.214C65.7682 282.584 65.0228 282.586 64.7391 282.028C64.2242 281.015 64.6865 279.419 64.8496 278.319C64.9075 277.927 64.9781 277.525 65.0824 277.135C61.4617 278.213 57.7314 278.736 54.0469 278.131C50.4595 277.542 47.6812 275.281 45.4413 272.515C43.0774 269.597 41.3976 266.197 40.4964 262.551C39.4707 258.403 39.4037 254.118 39.4278 249.869C39.4533 245.345 39.6207 240.797 40.1708 236.303C39.5681 236.161 38.8996 236.039 38.2905 236.081C37.9888 236.564 37.4036 236.767 36.8748 236.704C35.7249 237.973 38.6416 239.27 39.5738 239.594C39.8974 239.707 39.8628 240.233 39.4895 240.217L39.2543 240.206C37.814 240.129 36.326 239.883 35.4792 238.544C34.8006 237.471 35.0045 236.2 35.8134 235.324C36.3477 230.271 37.625 225.349 38.8138 220.419C39.9804 215.58 41.2778 210.773 42.653 205.989L43.2695 203.848C45.4346 196.348 47.6977 188.787 50.6843 181.584C52.1757 177.988 53.8937 174.458 56.2225 171.322C58.3933 168.399 60.9562 165.897 63.9021 163.761C69.394 159.778 75.8382 157.371 82.1698 155.078L82.4533 154.976C85.7345 153.788 89.0076 152.587 92.2514 151.3C95.1202 150.163 97.8686 148.72 100.724 147.565C100.631 147.397 100.542 147.227 100.455 147.054L100.403 147.099C100.394 147.106 100.384 147.113 100.375 147.119C100.088 147.319 99.6648 147.221 99.4282 146.997C98.7601 146.367 98.9863 145.667 99.4322 145.012L99.4903 144.929C100.036 144.165 100.522 143.357 101.026 142.564L101.341 142.069C102.186 140.746 103.074 139.413 104.201 138.32C104.723 137.813 105.294 137.434 105.899 137.151C105.848 137.042 106.301 136.818 106.43 136.93C108.348 136.228 110.554 136.375 112.645 136.569M187.988 251.745L185.322 252.048C182.388 252.382 179.454 252.705 176.519 253.024L170.145 253.717C170.128 254.081 170.084 254.436 170.076 254.711C170.035 256.126 170.004 257.542 169.974 258.958C169.915 261.796 169.98 264.637 170.167 267.469C170.348 270.214 170.586 272.959 170.957 275.685L171.032 276.23L171.076 276.517C171.379 276.546 171.676 276.69 171.923 276.985C172.462 277.629 174.414 277.003 175.177 276.731C176.431 276.285 177.611 275.531 178.701 274.775C179.765 274.036 180.723 273.175 181.644 272.268L182.397 271.523C183.146 270.778 183.896 269.985 184.355 269.048C184.978 267.777 185.059 266.217 185.241 264.833C185.466 263.131 185.734 261.429 186.016 259.735M110.589 233.877L110.312 233.949C100.266 236.62 90.2353 239.369 80.1585 241.921C75.1717 243.185 70.1613 244.356 65.1684 245.596L64.36 245.798C60.4212 246.794 56.435 247.992 53.4188 250.85C53.3074 250.956 53.1458 250.794 53.2506 250.682C56.5014 247.22 61.1247 245.755 65.5639 244.484C66.3845 244.249 67.2061 244.02 68.0269 243.787C61.9897 241.634 55.8572 239.76 49.5832 238.424C47.9676 238.08 46.3333 237.828 44.719 237.482C43.5931 237.241 42.4937 236.893 41.3797 236.604L40.5035 236.384L40.4919 239.154C40.4773 243.078 40.4843 246.998 40.6844 250.921L40.7223 251.648C40.9557 256.014 41.3202 260.471 42.8689 264.587C44.1274 267.933 46.1334 271.084 48.7567 273.521C50.0841 274.753 51.5112 275.713 53.2753 276.187C54.9133 276.627 56.6294 276.678 58.3132 276.561C66.3897 275.997 73.5792 271.608 80.595 267.974C92.0704 262.031 103.547 256.09 115.034 250.169C114.724 249.956 114.431 249.712 114.165 249.437C112.625 247.845 111.812 245.667 111.279 243.557C110.711 241.311 110.371 238.904 110.331 236.585M125.205 252.463C125.306 252.409 125.424 252.477 125.428 252.592C125.464 253.469 124.979 254.335 124.617 255.126L124.579 255.21C124.138 256.189 123.657 257.156 123.158 258.107C122.162 260.007 121.127 261.887 120.046 263.74C117.874 267.469 115.459 271.04 112.606 274.286C111.961 275.02 110.901 274.079 111.315 273.29C113.309 269.483 115.634 265.889 118.027 262.327C119.225 260.543 120.423 258.757 121.632 256.982C122.137 256.241 122.648 255.502 123.173 254.775L123.49 254.34M244.35 180.588C234.269 180.893 224.2 181.55 214.167 182.581C204.836 183.54 195.54 184.815 186.295 186.406C184.364 186.738 182.436 187.084 180.51 187.444L179.355 187.661C177.428 188.026 175.075 188.177 173.36 189.206C171.552 190.292 171.063 192.56 170.461 194.43C169.754 196.63 169.065 198.836 168.394 201.047C165.73 209.827 163.297 218.684 161.127 227.598C160.049 232.024 159.093 236.473 158.086 240.914C157.191 244.86 156.203 248.762 155.172 252.668C155.299 252.569 155.455 252.494 155.643 252.454C160.766 251.363 165.995 250.889 171.194 250.287L171.698 250.228C177.076 249.596 182.455 248.967 187.837 248.362L223.469 244.353C225.57 244.117 227.822 244.085 229.867 243.521C233.344 242.561 234.159 238.673 234.742 235.576L234.76 235.482C236.518 226.125 237.919 216.686 239.559 207.306M156.001 241.791C154.618 241.699 152.724 240.432 151.675 240.523C152.226 241.448 152.474 242.502 152.157 243.629C151.273 246.764 147.277 245.142 145.351 244.184C143.773 243.399 142.249 242.437 140.502 242.069C138.522 241.653 137.181 242.441 135.508 243.348C134.135 244.094 132.639 244.629 131.1 244.906C130.282 245.054 129.505 245.069 128.73 245.012C128.683 245.05 128.63 245.085 128.57 245.117L128.16 245.332C130.015 245.417 131.905 245.99 133.631 246.514C135.42 247.057 137.177 247.712 138.924 248.382L140.642 249.042C144.881 250.666 149.269 252.209 153.857 252.195C154.187 252.194 154.457 252.285 154.67 252.434M148.261 231.968C149.628 231.801 150.889 231.98 151.981 232.87C153.298 233.944 154.183 235.724 156.076 235.84C156.629 235.875 156.757 236.651 156.208 236.813C154.799 237.231 153.658 236.468 152.697 235.478L152.052 234.803C151.103 233.82 150.228 233.06 148.618 233.119C146.893 233.182 145.166 233.58 143.453 233.783C141.512 234.013 139.572 234.208 137.625 234.377C137.535 234.385 137.519 234.242 137.604 234.222L139.784 233.679M146.942 226.379L147.167 226.356C149.152 226.164 150.967 226.156 152.739 227.224L153.079 227.43C154.677 228.401 156.417 229.546 157.416 231.119C157.579 231.377 157.309 231.68 157.036 231.614C155.115 231.153 153.711 229.743 152.096 228.688C150.283 227.504 148.411 227.7 146.344 227.884C144.343 228.062 142.343 228.306 140.361 228.64C138.499 228.953 136.631 229.448 134.751 229.606L134.751 229.602C134.536 229.601 134.414 229.279 134.633 229.169C136.541 228.216 138.752 227.765 140.828 227.329M78.985 172.393C78.9825 172.236 79.2033 172.177 79.2804 172.313C80.5716 174.586 81.2466 177.372 81.9345 179.875C82.655 182.498 83.2366 185.148 83.759 187.817C84.8173 193.221 85.3812 198.595 85.4194 204.103C85.4247 204.889 84.144 205.098 84.0187 204.293C83.1869 198.935 82.39 193.571 81.5519 188.215C81.1302 185.521 80.6395 182.837 80.1698 180.151M91.7684 176.352C91.6733 176.038 92.1293 175.933 92.2459 176.22C94.8373 182.583 95.7149 189.795 94.0512 196.509C93.7966 197.536 92.293 197.091 92.485 196.077M125.195 170.697C125.182 170.463 125.486 170.426 125.601 170.587C126.829 172.318 127.338 174.636 129.492 175.53C130.568 175.977 131.778 175.899 132.728 176.653C133.364 177.158 133.851 177.954 133.374 178.718C133.22 178.965 132.79 179.089 132.581 178.82C132.276 178.43 132.115 177.962 131.701 177.669C131.118 177.256 130.33 177.23 129.661 177.036C128.795 176.785 128.032 176.345 127.407 175.692M145.708 141.83C145.835 141.766 145.956 141.807 146.037 141.916C146.153 142.072 146.139 142.224 145.997 142.331C146.186 142.718 146.41 143.686 146.441 143.827C146.571 144.398 146.708 144.967 146.852 145.534C147.142 146.679 147.397 147.833 147.687 148.978C147.995 150.192 148.362 151.393 148.771 152.577C148.797 152.654 148.826 152.732 148.856 152.811L148.903 152.931L148.914 152.913C148.997 152.782 149.17 152.874 149.15 153.012C149.131 153.139 149.105 153.264 149.084 153.391L149.126 153.504C149.393 154.223 149.576 154.981 149.086 155.615C148.903 155.853 148.701 155.993 148.45 156.035C148.047 157.365 147.541 158.669 146.999 159.922L146.841 160.288C146.044 162.116 145.195 163.92 143.926 165.477C142.542 167.176 140.637 168.336 139.431 170.198C138.87 171.064 138.48 171.975 138.163 172.953L138.043 173.325C137.819 174.016 137.559 174.687 136.91 175.093C136.703 175.222 136.393 175.181 136.226 175.004C134.896 173.597 136.289 170.968 137.091 169.605C138.206 167.709 139.82 166.497 141.436 165.067C143.178 163.526 144.289 161.464 145.363 159.432C146.022 158.188 146.657 156.917 147.326 155.667C146.627 155.049 146.403 153.821 146.167 152.968L146.145 152.891C145.754 151.524 145.443 150.122 145.246 148.714C145.057 147.36 144.978 146.026 145.028 144.664L145.043 144.317M148.307 148.275C148.153 148.063 148.409 147.823 148.62 147.867C149.909 148.134 151.168 148.914 152.325 149.545L152.448 149.612C153.371 150.109 154.3 150.719 154.785 151.687C155.312 152.738 155.268 153.949 155.196 155.092L155.19 155.199C155.102 156.569 155.087 157.992 154.798 159.338C154.649 160.026 154.026 160.22 153.493 160.058C152.859 162.061 151.077 163.537 149.775 165.118C148.116 167.134 148.428 169.855 148.602 172.282C148.672 173.265 147.45 173.544 146.821 173.02L145.37 171.815C145.129 171.614 144.888 171.412 144.647 171.21C144.441 171.036 144.237 170.861 144.034 170.684L143.732 170.417C143.598 170.297 143.006 169.636 142.833 169.608C142.414 169.542 141.418 170.647 141.077 170.993L141.034 171.037C140.393 171.666 139.813 172.343 139.273 173.061C139.174 173.193 138.98 173.083 139.051 172.931C139.535 171.894 140.097 170.903 140.765 169.976L140.9 169.791C141.344 169.192 141.94 168.134 142.725 167.958C143.682 167.742 144.638 168.702 145.335 169.236L145.379 169.269C145.711 169.518 146.038 169.771 146.365 170.026C146.331 168.219 146.559 166.393 147.492 164.835C148.15 163.737 149.135 162.923 149.978 161.979C150.917 160.928 151.407 159.636 152.257 158.542C152.366 158.401 152.517 158.325 152.68 158.301C152.713 157.421 152.843 156.532 152.943 155.662L152.972 155.401C153.073 154.456 153.312 153.3 152.849 152.415C152.412 151.578 151.409 150.987 150.666 150.42L150.059 149.949M106.494 138.274C106.107 138.498 105.744 138.777 105.415 139.126C104.38 140.225 103.639 141.593 102.919 142.908C102.531 143.617 102.157 144.333 101.766 145.04C101.596 145.347 101.421 145.651 101.244 145.955C101.162 146.095 100.92 146.373 100.799 146.544C100.933 146.732 101.071 146.917 101.212 147.099C101.266 147.169 104.98 151.217 106.275 152.801C108.258 155.227 110.03 157.79 111.545 160.534C113.028 163.22 114.158 166.064 115.532 168.803C116.22 170.174 116.988 171.535 117.967 172.722C118.005 172.768 118.045 172.812 118.084 172.857C118.457 171.847 119.415 170.766 119.885 170.145L119.929 170.086C120.996 168.648 122.123 167.253 123.274 165.881C124.325 164.629 125.403 163.404 126.507 162.199L126.922 161.748C127.691 160.917 128.668 159.673 129.795 159.079C129.674 158.864 129.534 158.651 129.374 158.441C128.319 157.062 126.827 156.061 125.356 155.158L124.401 154.577C120.804 152.384 117.262 150.089 114.139 147.239C112.487 145.732 110.857 144.152 109.468 142.393L108.977 141.772M112.497 137.188C110.812 137.329 108.993 137.296 107.436 137.845C108.82 139.154 110.136 140.567 111.487 141.898C111.608 140.998 111.853 140.109 112.062 139.231" fill="#231F20"/>
<path fill-rule="evenodd" clip-rule="evenodd" d="M164.157 80.9846C161.985 73.1254 153.684 69.696 146.208 69.1518C125.966 67.0423 105.363 78.3546 96.3889 96.6979C89.2056 110.627 88.9806 125.258 104.422 133.211C105.265 133.677 106.146 134.175 107.045 134.628C107.826 135.356 108.631 136.056 109.509 136.643C117.917 142.186 128.237 144.584 138.238 144.064C153.004 143.765 158.276 133.72 161.502 120.839C164.904 108.014 166.807 94.0985 164.157 80.9846V80.9846Z" fill="#FFDBB4"/>
<path fill-rule="evenodd" clip-rule="evenodd" d="M173.85 155.064C173.161 152.974 172.296 150.947 171.489 148.899C171.318 147.878 171.204 146.849 171.175 145.811C171.063 142.104 171.755 138.365 172.53 134.756C174.107 127.42 175.779 120.16 176.618 112.688C178.117 99.3247 177.225 85.4285 171.162 73.2293C165.908 62.6618 157.005 54.0197 145.505 50.7818C142.105 49.8242 138.606 49.296 135.083 49.0851C134.647 49.0156 134.211 48.9475 133.778 48.882C128.878 48.1414 123.917 47.7724 118.964 48.0917C110.75 48.6216 102.614 50.9879 95.7728 55.668C88.8854 60.3805 83.9918 66.9881 81.7147 75.0476C79.3459 83.4318 79.5468 92.5121 75.4563 100.373C74.2478 102.695 72.8372 104.903 71.492 107.147C67.9226 111.14 64.0472 115.578 63.198 121.068C62.1502 127.853 66.0441 133.587 69.7293 138.881C73.0603 143.662 77.5803 150.264 74.1523 156.15C72.5353 158.928 69.9443 161.005 67.9984 163.537C65.9809 166.166 64.406 169.184 63.5923 172.41C62.0638 178.467 63.47 184.78 67.5578 189.514C69.6871 191.979 72.4215 193.608 75.3814 194.878C78.4109 196.176 81.3709 197.408 83.8754 199.617C85.0202 200.625 86.068 201.73 87.0589 202.888C87.9823 204.336 89.0574 205.689 90.2697 206.927C91.6042 208.291 94.2184 206.424 92.9935 204.82C92.9028 204.702 92.8143 204.586 92.7236 204.467C91.8276 203.296 90.9274 202.126 89.9851 200.993C87.1748 196.529 86.0933 191.063 87.491 185.849C87.8537 184.495 88.3638 183.21 88.9986 181.997C89.1333 182.349 89.2809 182.698 89.4369 183.043C90.0441 184.378 90.896 185.961 91.9794 187.314C92.0216 188.242 92.161 189.161 92.4306 190.062C94.1003 195.643 99.6829 198.397 104.717 200.54C105.211 200.752 105.698 200.955 106.176 201.155C107.492 201.707 108.883 199.828 108.063 198.695C107.848 198.397 107.639 198.093 107.441 197.784C105.08 194.12 103.956 189.736 104.593 185.37C105.263 180.752 107.979 176.93 110.675 173.264C113.323 169.658 116.167 165.978 117.352 161.58C118.663 156.721 117.47 151.877 115.446 147.405C113.593 143.312 111.124 139.54 109.054 135.561C109.763 136.269 110.494 136.955 111.248 137.616C112.095 138.359 112.966 139.21 113.97 139.734C114.712 140.122 115.456 139.194 114.868 138.567C114.095 137.744 113.106 137.107 112.248 136.372C111.424 135.666 110.624 134.932 109.844 134.178C108.883 133.25 107.969 132.278 107.088 131.277C106.383 129.476 105.802 127.627 105.329 125.75C104.686 123.209 104.091 120.506 104.138 117.873C104.184 115.172 105.584 113.28 107.447 111.467C108.237 110.699 109.034 109.94 109.829 109.18C111.523 107.933 113.121 106.54 114.674 105.151C117.44 102.676 120.115 100.06 122.67 97.3672C123.355 96.6448 124.035 95.9144 124.706 95.1755C127.052 92.7627 129.288 90.2434 131.397 87.6371C133.492 86.872 135.506 85.8596 137.395 84.6676C136.572 85.5024 135.742 86.3267 134.915 87.1573C133.075 89.0087 131.163 90.8686 129.029 92.3774C128.81 92.5341 128.943 92.8659 129.213 92.813C131.926 92.2699 134.464 91.3653 136.834 89.9239C139.244 88.4571 141.367 86.4641 143.348 84.4647C144.47 83.9575 145.552 83.3044 146.54 82.6619C146.593 82.6281 146.646 82.5921 146.698 82.5581C145.724 85.6525 144.295 89.1567 141.249 90.2599C141.149 90.2959 141.156 90.4607 141.274 90.4544C143.84 90.3035 145.903 89.1459 147.531 87.4587C148.841 86.514 150.091 85.5128 151.283 84.4229C152.439 83.367 153.533 82.2345 154.572 81.062C153.12 83.9467 151.493 86.7674 149.888 89.5561C149.804 89.7041 149.981 89.9049 150.133 89.8013C153.52 87.5018 156.09 84.5345 158.192 81.0258C158.503 80.5093 158.799 79.9843 159.088 79.4553C158.87 80.2831 158.632 81.1057 158.377 81.9241C157.915 83.4054 157.461 84.8902 156.999 86.3707C156.749 87.1689 156.446 87.949 156.112 88.7158C155.874 89.2645 155.561 89.8121 155.513 90.4138C155.51 90.4537 155.553 90.4799 155.588 90.4713C156.939 90.1327 158.197 88.5882 159.159 87.6314C159.695 87.0986 160.198 86.5137 160.66 85.897C160.745 89.4492 160.804 93.0018 160.726 96.5645C160.581 103.108 160.159 109.649 159.62 116.171C159.143 121.937 158.791 127.988 155.582 132.999C153.099 136.877 149.072 139.561 144.698 140.861C144.312 140.978 143.924 141.081 143.534 141.174C137.201 142.681 130.893 140.973 125.294 137.955C123.611 137.049 122.173 139.509 123.797 140.521C129.873 144.313 137.574 145.604 144.451 143.905C144.234 152.048 148.237 159.773 152.22 166.68C154.448 170.546 156.679 174.386 158.254 178.577C159.59 182.136 160.499 185.828 160.804 189.626C161.167 194.103 160.811 198.604 160.187 203.043C160.153 203.284 160.119 203.527 160.083 203.768C159.944 204.721 160.798 205.52 161.724 205.032C165.816 202.876 167.58 198.281 168.653 194.033C169.657 190.053 170.338 185.995 170.717 181.91C171.274 183.451 171.725 185.029 172.075 186.64C172.124 186.87 172.17 187.101 172.216 187.331C172.482 188.677 174.514 188.582 174.839 187.331C174.898 187.105 174.955 186.879 175.007 186.65C176.683 179.856 177.135 172.769 176.249 165.822C175.783 162.168 175.005 158.562 173.85 155.064" fill="#4A312C"/>
<path fill-rule="evenodd" clip-rule="evenodd" d="M148.319 128.112C146.762 128.563 145.092 128.603 143.505 128.137C142.067 127.715 140.589 126.785 139.53 125.555C138.589 124.462 137.98 123.134 138.004 121.717C138.007 121.555 138.065 121.42 138.154 121.315C138.249 121.202 138.383 121.124 138.527 121.091C138.674 121.056 138.83 121.068 138.963 121.129C139.083 121.183 139.186 121.276 139.25 121.412C139.413 121.626 139.575 121.836 139.738 122.041C141.046 123.658 142.314 124.866 144.281 125.299C145.349 125.534 146.415 125.43 147.394 125.071C148.441 124.687 149.388 124.012 150.13 123.148C150.465 122.757 150.861 122.598 151.248 122.595C151.686 122.592 152.12 122.796 152.446 123.122C152.767 123.442 152.982 123.878 153.002 124.333C153.019 124.732 152.889 125.15 152.542 125.522C151.4 126.749 149.92 127.648 148.319 128.112ZM148.271 107.866C149.866 108.836 152.297 111.098 150.581 113.503C148.56 115.624 145.652 113.193 144.218 112.093C142.889 111.241 141.396 113.433 142.629 114.428C152.986 122.099 157.19 108.12 149.078 106.726C148.184 106.572 147.853 107.566 148.271 107.866ZM133.347 103.598C132.834 103.27 132.231 103.157 131.562 103.461C131.04 103.699 130.124 104.491 129.486 105.533C129.05 106.245 128.741 107.081 128.805 107.952C128.82 108.154 128.745 108.303 128.627 108.413C128.534 108.5 128.4 108.564 128.242 108.584C128.108 108.601 127.958 108.586 127.836 108.548C127.604 108.475 127.481 108.325 127.435 108.202C126.989 107.016 127.181 105.692 127.681 104.498C128.357 102.886 129.583 101.536 130.386 101.101C131.761 100.356 133.383 100.322 134.76 101.081C135.932 101.727 136.665 102.77 137.394 103.833C137.549 104.059 137.702 104.283 137.861 104.504C138.18 104.945 138.212 105.383 138.088 105.759C137.952 106.175 137.603 106.526 137.167 106.71C136.765 106.88 136.297 106.903 135.884 106.729C135.534 106.581 135.214 106.294 135.011 105.807C134.669 104.985 134.1 104.079 133.347 103.598V103.598ZM159.389 105.425C159.038 105.608 158.763 105.663 158.373 105.546C158.158 105.481 157.945 105.357 157.778 105.19C157.613 105.025 157.494 104.82 157.448 104.592C157.334 104.029 157.026 103.502 156.587 103.159C156.213 102.865 155.739 102.71 155.215 102.798C154.648 102.892 154.109 103.256 153.737 103.684C153.613 103.827 153.516 103.99 153.418 104.152C153.235 104.454 153.057 104.735 152.804 104.957C152.709 105.042 152.564 105.1 152.425 105.1C152.368 105.1 152.31 105.091 152.255 105.074C151.692 104.508 151.583 104.079 151.602 103.653C151.621 103.206 151.797 102.754 152.081 102.332C152.748 101.343 154.015 100.531 154.869 100.348C156.04 100.096 157.202 100.398 158.134 101.052C159.093 101.725 159.804 102.77 160.026 103.947C160.079 104.231 160.056 104.537 159.948 104.802C159.843 105.062 159.659 105.284 159.389 105.425ZM135.928 93.0475C135.226 93.7322 134.394 93.8382 133.553 93.9325C133.086 93.9855 132.713 94.0281 132.346 94.111C131.337 94.3388 130.339 94.682 129.429 95.1763C128.478 95.693 127.441 96.3162 126.696 97.1145C126.518 97.3044 126.351 97.5037 126.184 97.7035C126.031 97.8857 125.884 98.061 125.729 98.2301C125.551 98.4243 125.382 98.6279 125.214 98.8309C125.11 99.0022 125.089 99.0444 125.068 99.0882C125.037 99.1541 125 99.2279 124.958 99.307C124.901 99.4154 124.834 99.534 124.764 99.6416C124.647 99.8382 124.584 99.8923 124.53 99.9165C124.44 99.9566 124.354 99.9764 124.271 99.9657C124.194 99.9557 124.121 99.9184 124.048 99.8573C123.688 99.5525 123.581 99.0522 123.592 98.5212C123.609 97.7153 123.906 96.8232 124.18 96.2747C124.817 95.0003 125.7 93.6755 126.762 92.7244C127.974 91.6387 129.3 90.8168 130.822 90.2504C131.769 89.8983 132.864 89.5751 133.895 89.6159C134.637 89.6453 135.346 89.866 135.931 90.4171C136.29 90.7554 136.463 91.2366 136.463 91.7175C136.463 92.208 136.284 92.7013 135.928 93.0475ZM160.818 99.3172C160.773 99.3904 160.711 99.4409 160.642 99.4712C160.57 99.503 160.49 99.5122 160.412 99.4991C160.335 99.4862 160.262 99.4513 160.204 99.398C160.149 99.3469 160.106 99.2791 160.087 99.1961C159.621 97.1469 158.715 95.6223 156.783 94.6392C155.832 94.1555 154.738 93.8482 153.703 93.6032C153.403 93.532 153.085 93.4859 152.765 93.4392C151.762 93.2926 150.751 93.1248 150.098 92.3137C149.704 91.8251 149.538 91.2003 149.632 90.6288C149.72 90.0908 150.034 89.5974 150.605 89.3018C152.028 88.5661 153.795 89.288 155.232 89.903C155.338 89.9486 155.443 89.9934 155.545 90.0366C156.95 90.6297 158.231 91.4127 159.284 92.5323C160.119 93.4206 160.894 94.7338 161.205 96.0847C161.465 97.2085 161.404 98.3559 160.818 99.3172Z" fill="black"/>
<path fill-rule="evenodd" clip-rule="evenodd" d="M170.723 102.353C168.709 115.983 154.648 117.49 152.15 103.959C152.551 103.784 152.839 103.438 152.779 102.767C152.765 99.818 153.68 96.7014 156.339 95.0616C159.087 93.3695 162.303 93.2017 165.482 93.2444C171.55 93.0998 171.423 98.1737 170.723 102.353M149.949 96.4256C148.045 96.3453 145.635 96.4125 143.929 97.5733C143.46 96.3098 142.242 94.9608 141.01 94.2394C145.587 94.3734 150.298 93.9228 154.908 93.573C153.805 94.3256 152.778 95.4564 152.111 96.7636C151.491 96.4332 150.604 96.4641 149.949 96.4256M141.555 103.798C136.274 121.982 123.093 114.056 121.656 111.726C119.064 107.87 118.576 98.4956 120.834 95.9892C124.066 93.7227 128.641 94.306 132.46 94.2504C139.474 94.3451 144.456 96.4442 141.555 103.798M176.958 95.435C175.524 95.2473 173.991 95.2095 172.657 95.8414C172.246 94.0951 170.957 92.6351 169.501 91.9925C169.324 91.7715 169.351 91.6527 168.749 91.6859C165.053 90.5746 160.917 91.1626 157.365 92.3022C151.755 92.7748 145.87 93.1474 140.213 93.7985C134.914 91.4179 118.923 91.0689 117.929 96.9367C116.679 96.7496 114.55 95.7654 113.5 97.1005C105.795 95.7937 97.833 97.6098 90.0945 98.4187C88.1466 98.7775 87.1433 102.645 89.3544 102.592C90.5975 102.254 89.3161 100.184 90.99 100.028C98.4564 99.2123 105.76 98.0549 113.302 97.9194C113.04 99.2224 118.291 99.3072 118.369 98.5463C118.38 98.552 118.392 98.5558 118.403 98.5609C117.106 103.399 118.277 110.361 120.622 113.361C123.908 117.289 132.157 118.416 135.814 115.889C140.532 113.556 145.441 101.847 144.062 97.9566C146.564 97.1632 149.038 97.4014 151.635 97.8055C151.041 99.4855 150.014 103.621 151.491 103.98C151.22 112.191 158.689 117.314 165.576 113.946C171.536 111.147 173.62 102.288 172.891 96.9102C173.633 98.3445 179.862 96.783 176.958 95.435" fill="black"/>
</svg>
